<svg xmlns="http://www.w3.org/2000/svg" viewBox="0 0 64 64">
  <defs>
    <linearGradient id="bg" x1="9" y1="5" x2="57" y2="60" gradientUnits="userSpaceOnUse">
      <stop stop-color="#2b0a3d"/>
      <stop offset=".58" stop-color="#e60073"/>
      <stop offset="1" stop-color="#ffb7df"/>
    </linearGradient>
    <filter id="shadow" x="-20%" y="-20%" width="140%" height="140%">
      <feDropShadow dx="0" dy="2" stdDeviation="1.4" flood-color="#120018" flood-opacity=".55"/>
    </filter>
  </defs>
  <rect width="64" height="64" rx="14" fill="url(#bg)"/>
  <path d="M47.4 10.8c-7.5 1.2-16.3 6.1-22 12.2-5.1 5.4-7.7 11.6-6.8 16 .8 3.9 4.1 6.2 8.6 5.9 4.9-.3 8.4-3.1 8.4-6.4 0-2.2-1.8-3.6-4.6-3.6-2.6 0-4.7.9-7.3 2.9.8-4.1 4.4-9.1 9.5-13.1 5-4 10.3-6.5 14.6-7 .7-.1 1.3-.7 1.2-1.4l-.3-4.3c-.1-.8-.6-1.3-1.3-1.2Z" fill="#fff" opacity=".96"/>
  <path d="M19.6 53.7c8-1.3 17.1-6.2 22.9-12.4 4.9-5.3 7.2-10.6 6.4-14.8-.8-4.1-4.1-6.3-8.6-6-4.8.4-8.6 3.3-8.6 6.6 0 2.1 1.7 3.5 4.5 3.5 2.5 0 4.9-.9 7.3-2.7-.7 3.7-4 8.3-8.8 12.2-5.2 4.2-10.8 6.9-15.6 7.4-.7.1-1.2.7-1.1 1.4l.3 3.6c.1.8.6 1.3 1.3 1.2Z" fill="#fff" opacity=".92"/>
  <text x="32" y="39" text-anchor="middle" font-family="Georgia, 'Times New Roman', serif" font-size="18" font-weight="700" font-style="italic" fill="#ffffff" filter="url(#shadow)">SN</text>
</svg>
